<svg xmlns="http://www.w3.org/2000/svg" version="1.1" xmlns:xlink="http://www.w3.org/1999/xlink" xmlns:svgjs="http://svgjs.dev/svgjs" width="1000" height="277" viewBox="0 0 1000 277"><g transform="matrix(1,0,0,1,-0.6060606060606233,0.2774704908261185)"><svg viewBox="0 0 396 110" data-background-color="#000000" preserveAspectRatio="xMidYMid meet" height="277" width="1000" xmlns="http://www.w3.org/2000/svg" xmlns:xlink="http://www.w3.org/1999/xlink"><g id="tight-bounds" transform="matrix(1,0,0,1,0.2400000000000091,-0.11018683751217395)"><svg viewBox="0 0 395.52 110.22037367502433" height="110.22037367502433" width="395.52"><g><svg viewBox="0 0 395.52 110.22037367502433" height="110.22037367502433" width="395.52"><g><svg viewBox="0 0 395.52 110.22037367502433" height="110.22037367502433" width="395.52"><g><svg viewBox="0 0 395.52 110.22037367502433" height="110.22037367502433" width="395.52"><g><rect width="395.52" height="86.15535678308055" fill="none" stroke-width="9.018103199999999" stroke="#ffffff" data-fill-palette-color="none" data-stroke-palette-color="tertiary"></rect><rect width="395.52" height="24.065016891943785" y="86.15535678308055" fill="#ffffff" data-fill-palette-color="tertiary"></rect></g><g><svg viewBox="0 0 395.52 86.15535678308055" height="86.15535678308055" width="395.52"><g transform="matrix(1,0,0,1,23.607599999999998,23.607599999999998)"><svg width="348.3048" viewBox="1.8300000429153442 -38.09000015258789 350.9100036621094 39.2400016784668" height="38.94015678308056" data-palette-color="#ffffff"><path d="M10.99 0.49L10.99 0.49Q9.38 0.49 8.13-0.29L8.13-0.29Q6.88 0.49 5.82 0.49 4.76 0.49 4.08 0.31 3.39 0.12 2.88-0.2L2.88-0.2Q1.83-0.83 1.83-1.78L1.83-1.78Q1.83-2.27 2.1-2.64L2.1-2.64Q2.64-2.22 3.47-2.22L3.47-2.22Q5.64-2.22 6.47-4.08L6.47-4.08 6.47-16.02Q6.47-17.14 6.01-17.68L6.01-17.68Q5.27-18.58 3.49-19.46L3.49-19.46Q5.15-20.21 5.64-20.8L5.64-20.8Q6.47-21.75 6.47-22.95L6.47-22.95 6.47-33.25Q5.64-35.13 3.47-35.13L3.47-35.13Q2.64-35.13 2.1-34.72L2.1-34.72Q1.83-35.08 1.83-35.56 1.83-36.04 2.11-36.45 2.39-36.87 2.88-37.16L2.88-37.16Q4-37.84 5.46-37.84 6.91-37.84 8.13-37.04L8.13-37.04Q9.4-37.84 10.83-37.84 12.26-37.84 13.48-37.23L13.48-37.23Q16.36-38.09 18.82-38.09 21.29-38.09 23.19-37.82 25.1-37.55 26.83-36.88 28.56-36.21 30.09-35.08 31.62-33.96 32.81-32.28L32.81-32.28Q35.35-28.74 36.06-22.9L36.06-22.9Q36.21-21.46 36.67-20.87L36.67-20.87Q37.45-19.92 38.79-19.46L38.79-19.46Q37.38-18.92 36.94-18.36L36.94-18.36Q36.21-17.43 36.06-16.02L36.06-16.02Q35.25-7.91 30.62-3.52L30.62-3.52Q26.15 0.73 19.02 0.73L19.02 0.73Q16.16 0.73 13.89-0.15L13.89-0.15Q12.79 0.49 10.99 0.49ZM15.45-34.25L15.45-3.83Q16.63-2.51 18.57-2.51 20.51-2.51 21.94-3.28 23.36-4.05 24.34-5.66L24.34-5.66Q26.32-8.96 26.32-16.02L26.32-16.02Q26.32-17.55 25.83-18.12L25.83-18.12Q25.17-18.9 23.66-19.46L23.66-19.46Q25.15-19.97 25.59-20.48L25.59-20.48Q26.32-21.36 26.32-22.72 26.32-24.07 26.12-25.42 25.93-26.76 25.5-28.08 25.07-29.39 24.43-30.6 23.78-31.81 22.88-32.74L22.88-32.74Q20.9-34.77 18.21-34.77L18.21-34.77Q17.38-34.77 16.6-34.73 15.82-34.69 15.45-34.25L15.45-34.25ZM27.59-30.52L27.59-30.52Q29.42-25.42 29.42-21.78L29.42-21.78Q29.42-20.53 29.21-20.31 29-20.09 28.76-19.92L28.76-19.92Q28.32-19.63 27.81-19.46L27.81-19.46Q29.27-18.8 29.35-18.19L29.35-18.19Q29.39-17.92 29.39-17.65L29.39-17.65 29.39-17.04Q29.39-13.75 28.71-10.66 28.03-7.57 27.69-6.47L27.69-6.47Q28.78-6.79 29.28-7.92 29.79-9.06 30.14-10.36 30.49-11.67 30.71-13.13L30.71-13.13Q31.2-16.14 31.2-19.41L31.2-19.41Q31.2-25.27 29.47-28.86L29.47-28.86Q28.71-30.27 27.59-30.52ZM8.81-9.64L8.81-6.47Q10.03-6.93 10.16-9.67L10.16-9.67Q10.3-12.4 10.3-17.24 10.3-22.07 10.29-23.67 10.28-25.27 10.25-26.25L10.25-26.25Q10.18-29.13 9.7-29.72 9.23-30.32 8.81-30.52L8.81-30.52Q8.81-22.02 8.52-20.85L8.52-20.85Q8.18-19.87 6.86-19.46L6.86-19.46Q8.33-18.95 8.52-18.21L8.52-18.21Q8.81-17.04 8.81-9.64L8.81-9.64ZM52.61-0.29L52.61-0.29Q51.36 0.49 49.78 0.49 48.19 0.49 46.95-0.29L46.95-0.29Q45.7 0.49 44.64 0.49 43.58 0.49 42.89 0.31 42.21 0.12 41.7-0.2L41.7-0.2Q40.65-0.83 40.65-1.78L40.65-1.78Q40.65-2.27 40.92-2.64L40.92-2.64Q41.45-2.22 42.28-2.22L42.28-2.22Q44.46-2.22 45.29-4.08L45.29-4.08 45.29-16.02Q45.29-17.14 44.82-17.68L44.82-17.68Q44.09-18.58 42.31-19.46L42.31-19.46Q43.97-20.21 44.46-20.8L44.46-20.8Q45.29-21.75 45.29-22.95L45.29-22.95 45.29-33.25Q44.46-35.13 42.28-35.13L42.28-35.13Q41.45-35.13 40.92-34.72L40.92-34.72Q40.65-35.08 40.65-35.56 40.65-36.04 40.93-36.45 41.21-36.87 41.7-37.16L41.7-37.16Q42.82-37.84 44.27-37.84 45.73-37.84 46.95-37.04L46.95-37.04Q48.22-37.84 49.78-37.84 51.34-37.84 52.61-37.04L52.61-37.04Q55.37-38.09 58.73-38.09 62.08-38.09 64.35-37.48 66.62-36.87 68.26-35.74L68.26-35.74Q71.56-33.47 72.36-29.42L72.36-29.42Q72.68-27.61 74.68-26.68L74.68-26.68Q72.78-25.61 72.19-23.27L72.19-23.27Q70.99-18.43 66.21-17.24L66.21-17.24Q68.67-16.58 70.24-14.53L70.24-14.53Q71.85-12.4 71.85-9.52L71.85-9.52 71.85-7.08Q71.85-3.56 74.12-2.54L74.12-2.54Q74.8-2.22 75.61-2.22 76.41-2.22 76.95-2.64L76.95-2.64Q77.22-2.27 77.22-1.79 77.22-1.32 76.98-0.9 76.73-0.49 76.32-0.2L76.32-0.2Q75.44 0.49 74.27 0.49 73.09 0.49 71.97-0.15L71.97-0.15Q69.92 0.98 68.14 0.07L68.14 0.07Q67.45 0.49 66.7 0.49 65.94 0.49 65.24 0.15 64.55-0.2 64.01-0.98L64.01-0.98Q62.86-2.66 62.86-6.15L62.86-6.15 62.86-7.96Q62.86-13.6 59.64-15.28L59.64-15.28Q58.57-15.84 57.13-15.84L57.13-15.84 54.27-15.84 54.27-3.96Q54.93-2.22 56.78-2.22L56.78-2.22Q57.61-2.22 58.15-2.64L58.15-2.64Q58.42-2.27 58.42-1.56 58.42-0.85 57.65-0.18 56.88 0.49 55.34 0.49 53.81 0.49 52.61-0.29ZM58.96-34.84L58.96-34.84Q54.27-34.84 54.27-31.2L54.27-31.2 54.27-21.22Q54.27-19.95 55.27-19.51L55.27-19.51Q56.22-19.09 58.09-19.09 59.96-19.09 60.7-19.3 61.45-19.51 61.98-20.02L61.98-20.02Q63.08-21.07 63.08-23.54L63.08-23.54 63.08-30.66Q63.08-33.72 60.54-34.57L60.54-34.57Q59.79-34.84 58.96-34.84ZM64.72-33.28L64.72-33.28Q65.48-31.57 65.48-27.81L65.48-27.81Q65.48-21.34 64.87-20.07L64.87-20.07Q66.21-20.34 66.79-23.66L66.79-23.66 66.99-24.66Q67.26-26.25 68.55-26.68L68.55-26.68Q67.6-27 67.33-27.44L67.33-27.44Q67.04-27.95 66.81-29.19 66.57-30.42 66.33-31.18 66.09-31.93 65.82-32.37L65.82-32.37Q65.35-33.15 64.72-33.28ZM47.63-9.64L47.63-6.47Q48.85-6.93 48.97-9.67L48.97-9.67Q49.12-12.4 49.12-17.24 49.12-22.07 49.11-23.67 49.09-25.27 49.07-26.25L49.07-26.25Q49-29.13 48.52-29.72 48.04-30.32 47.63-30.52L47.63-30.52Q47.63-22.02 47.34-20.85L47.34-20.85Q46.99-19.87 45.68-19.46L45.68-19.46Q47.14-18.95 47.34-18.21L47.34-18.21Q47.63-17.04 47.63-9.64L47.63-9.64ZM64.48-13.16L64.48-13.16Q65.45-12.06 65.45-10.47L65.45-10.47 65.45-7.25Q65.45-3.2 67.06-2.93L67.06-2.93Q67.5-2.86 67.92-2.95L67.92-2.95Q67.04-4.32 67.04-5.83L67.04-5.83 67.04-9.25Q67.04-11.18 66.5-11.99L66.5-11.99Q65.57-13.35 64.48-13.16ZM79.63-0.17L79.63-0.17Q78.73 0.49 77.57 0.49 76.41 0.49 75.72-0.11 75.02-0.71 75.02-1.49 75.02-2.27 75.26-2.64L75.26-2.64Q75.97-2.22 77.01-2.22 78.05-2.22 78.57-2.5 79.1-2.78 79.58-3.27L79.58-3.27 83.05-13.55 83.54-15.23Q83.76-15.99 83.76-16.63L83.76-16.63Q83.76-18.85 81.66-19.46L81.66-19.46Q83.59-20.19 84.37-21.04L84.37-21.04Q85.59-22.39 86.3-24.58L86.3-24.58 88.98-33.59Q88.2-34.64 87.13-34.64 86.05-34.64 85.13-34.18L85.13-34.18Q84.88-34.62 84.88-35.17 84.88-35.72 85.11-36.21 85.35-36.69 85.76-37.06L85.76-37.06Q86.69-37.84 88.4-37.84 90.11-37.84 91.3-36.82L91.3-36.82Q92.52-37.84 94.34-37.84 96.16-37.84 97.24-36.87L97.24-36.87Q98.8-37.84 100.41-37.84 102.02-37.84 102.91-37.23 103.8-36.62 103.8-35.57L103.8-35.57Q103.8-35.08 103.51-34.72L103.51-34.72Q102.95-35.13 102.19-35.13L102.19-35.13Q100.56-35.13 100.07-32.91L100.07-32.91 103.19-22.92Q103.78-21.04 106.12-20L106.12-20Q106.78-19.7 107.47-19.46L107.47-19.46Q105.02-18.65 105.02-17.04L105.02-17.04Q105.02-16.43 105.22-15.97L105.22-15.97 109.88-3.47Q110.96-2.34 112.06-2.34 113.15-2.34 113.76-2.76L113.76-2.76Q114.03-2.56 114.03-2.03 114.03-1.49 113.86-1.04 113.69-0.59 113.33-0.24L113.33-0.24Q112.54 0.49 111.03 0.49 109.52 0.49 108.39-0.34L108.39-0.34Q107.12 0.49 105.52 0.49 103.93 0.49 102.78-0.32L102.78-0.32Q101.68 0.49 100.19 0.49 98.7 0.49 97.72-0.13 96.75-0.76 96.7-1.9L96.7-1.9Q96.7-2.59 96.97-2.76L96.97-2.76Q97.63-2.34 98.31-2.34L98.31-2.34Q99.75-2.34 100.34-2.93L100.34-2.93 98.48-9.16 85.27-9.16 83.66-3.76Q84.66-2.22 86.09-2.22 87.52-2.22 88.23-2.64L88.23-2.64Q88.5-2.2 88.5-1.43 88.5-0.66 87.74-0.09 86.98 0.49 85.79 0.49 84.59 0.49 83.59-0.12L83.59-0.12Q82.71 0.49 81.57 0.49 80.44 0.49 79.63-0.17ZM86.25-12.45L97.48-12.45 91.82-31.27 86.25-12.45ZM100.87-10.03L102.14-6.47Q102.58-6.47 102.58-7.45L102.58-7.45Q102.58-9.16 102.07-10.77L102.07-10.77 101.14-13.62Q100.17-16.85 100.17-17.68L100.17-17.68Q100.14-19.04 101.36-19.48L101.36-19.48Q99.68-19.82 99.31-20.53L99.31-20.53Q99.14-20.83 99.03-21 98.92-21.17 98.81-21.4 98.7-21.63 98.55-22 98.41-22.36 98.16-23.05L98.16-23.05 96.65-27.61Q96.11-29.32 95.06-30.2L95.06-30.2Q94.75-30.47 94.48-30.52L94.48-30.52Q96.11-24.61 96.63-22.95L96.63-22.95Q100.17-12.06 100.87-10.03L100.87-10.03ZM109.39-4.13L109.35-4.27 109.39-4.13ZM118.55-0.17L118.55-0.17Q117.64 0.49 116.48 0.49 115.32 0.49 114.63-0.11 113.93-0.71 113.93-1.49 113.93-2.27 114.18-2.64L114.18-2.64Q114.89-2.22 116.42-2.22L116.42-2.22Q117.03-2.22 117.77-2.84 118.5-3.47 118.94-4.57L118.94-4.57 118.94-16.02Q118.94-17.16 118.45-17.72L118.45-17.72Q117.72-18.6 115.96-19.46L115.96-19.46Q117.74-20.31 118.21-20.87L118.21-20.87Q118.94-21.8 118.94-22.95L118.94-22.95 118.96-33.59Q118.38-35.13 116.37-35.13L116.37-35.13Q115.35-35.13 114.86-34.72L114.86-34.72Q114.62-35.03 114.62-35.55 114.62-36.06 114.84-36.47 115.06-36.89 115.45-37.21L115.45-37.21Q116.28-37.84 117.67-37.84 119.06-37.84 119.96-37.04L119.96-37.04Q120.77-37.84 121.84-37.84 122.92-37.84 123.67-36.94L123.67-36.94Q124.63-37.84 125.36-37.84 126.09-37.84 126.48-37.72 126.87-37.6 127.26-37.26L127.26-37.26Q128.04-36.65 128.9-34.79L128.9-34.79 138.25-15.38 145.96-34.4 146.65-35.99Q147.26-37.33 147.8-37.59 148.33-37.84 149.05-37.84 149.77-37.84 150.53-37.3L150.53-37.3Q151.46-37.84 152.96-37.84 154.46-37.84 155.56-37.04L155.56-37.04Q156.54-37.84 157.6-37.84 158.66-37.84 159.26-37.67 159.86-37.5 160.3-37.21L160.3-37.21Q161.22-36.55 161.22-35.57L161.22-35.57Q161.22-35.08 160.95-34.72L160.95-34.72Q160.42-35.13 159.59-35.13L159.59-35.13Q157.73-35.13 157.07-33.4L157.07-33.4 157.07-22.95Q157.07-21.75 157.59-21.17L157.59-21.17Q158.39-20.21 160.05-19.46L160.05-19.46Q158.27-18.58 157.78-18.02L157.78-18.02Q157.07-17.14 157.07-16.02L157.07-16.02 157.07-4.08Q157.9-2.22 160.08-2.22L160.08-2.22Q160.91-2.22 161.44-2.64L161.44-2.64Q161.71-2.27 161.71-1.79 161.71-1.32 161.43-0.9 161.15-0.49 160.66-0.2L160.66-0.2Q159.54 0.49 158.1 0.49 156.66 0.49 155.41-0.29L155.41-0.29Q154.26 0.49 152.8 0.49L152.8 0.49Q151.24 0.49 150.04-0.29L150.04-0.29Q148.8 0.49 147.73 0.49 146.67 0.49 145.99 0.31 145.31 0.12 144.79-0.2L144.79-0.2Q143.74-0.83 143.74-1.78L143.74-1.78Q143.74-2.27 144.01-2.64L144.01-2.64Q144.55-2.22 145.38-2.22L145.38-2.22Q147.55-2.22 148.38-4.08L148.38-4.08 148.38-30.76 138.86-7.18 137.81-4.79Q137.05-3.08 136.75-2.86 136.44-2.64 136.25-2.64L136.25-2.64Q135.64-2.64 135.39-2.76L135.39-2.76 122.36-28.47 122.36-4.59Q122.82-3.47 123.63-2.84 124.43-2.22 125.43-2.22 126.43-2.22 127.14-2.64L127.14-2.64Q127.41-2.2 127.41-1.43 127.41-0.66 126.65-0.09 125.9 0.49 124.7 0.49 123.5 0.49 122.5-0.12L122.5-0.12Q121.62 0.49 120.49 0.49 119.35 0.49 118.55-0.17ZM134.25-13.65L125.8-30.54Q125.55-30.18 125.55-29.49L125.55-29.49Q125.55-27.51 127.21-24.24L127.21-24.24 136.1-6.49Q136.27-6.71 136.27-7.42L136.27-7.42Q136.27-9.55 134.25-13.65L134.25-13.65ZM150.72-30.52L150.72-6.47Q151.95-6.93 152.07-9.67L152.07-9.67Q152.21-12.4 152.21-17.24 152.21-22.07 152.2-23.67 152.19-25.27 152.17-26.25L152.17-26.25Q152.09-29.13 151.62-29.72 151.14-30.32 150.72-30.52L150.72-30.52ZM122.04-5.86L122.01-6.15Q122.01-5.96 122.04-5.86L122.04-5.86ZM119.26-5.86L119.28-6.15Q119.26-6.05 119.26-5.86L119.26-5.86ZM166.35-0.17L166.35-0.17Q165.44 0.49 164.28 0.49 163.12 0.49 162.43-0.11 161.73-0.71 161.73-1.49 161.73-2.27 161.98-2.64L161.98-2.64Q162.69-2.22 163.72-2.22 164.76-2.22 165.29-2.5 165.81-2.78 166.3-3.27L166.3-3.27 169.77-13.55 170.25-15.23Q170.47-15.99 170.47-16.63L170.47-16.63Q170.47-18.85 168.37-19.46L168.37-19.46Q170.3-20.19 171.08-21.04L171.08-21.04Q172.3-22.39 173.01-24.58L173.01-24.58 175.7-33.59Q174.92-34.64 173.84-34.64 172.77-34.64 171.84-34.18L171.84-34.18Q171.6-34.62 171.6-35.17 171.6-35.72 171.83-36.21 172.06-36.69 172.48-37.06L172.48-37.06Q173.4-37.84 175.11-37.84 176.82-37.84 178.02-36.82L178.02-36.82Q179.24-37.84 181.06-37.84 182.88-37.84 183.95-36.87L183.95-36.87Q185.51-37.84 187.12-37.84 188.74-37.84 189.63-37.23 190.52-36.62 190.52-35.57L190.52-35.57Q190.52-35.08 190.22-34.72L190.22-34.72Q189.66-35.13 188.91-35.13L188.91-35.13Q187.27-35.13 186.78-32.91L186.78-32.91 189.91-22.92Q190.49-21.04 192.84-20L192.84-20Q193.5-19.7 194.18-19.46L194.18-19.46Q191.74-18.65 191.74-17.04L191.74-17.04Q191.74-16.43 191.93-15.97L191.93-15.97 196.6-3.47Q197.67-2.34 198.77-2.34 199.87-2.34 200.48-2.76L200.48-2.76Q200.75-2.56 200.75-2.03 200.75-1.49 200.58-1.04 200.41-0.59 200.04-0.24L200.04-0.24Q199.26 0.49 197.74 0.49 196.23 0.49 195.11-0.34L195.11-0.34Q193.84 0.49 192.24 0.49 190.64 0.49 189.49-0.32L189.49-0.32Q188.39 0.49 186.9 0.49 185.41 0.49 184.44-0.13 183.46-0.76 183.41-1.9L183.41-1.9Q183.41-2.59 183.68-2.76L183.68-2.76Q184.34-2.34 185.02-2.34L185.02-2.34Q186.46-2.34 187.05-2.93L187.05-2.93 185.2-9.16 171.99-9.16 170.38-3.76Q171.38-2.22 172.8-2.22 174.23-2.22 174.94-2.64L174.94-2.64Q175.21-2.2 175.21-1.43 175.21-0.66 174.45-0.09 173.7 0.49 172.5 0.49 171.3 0.49 170.3-0.12L170.3-0.12Q169.42 0.49 168.29 0.49 167.15 0.49 166.35-0.17ZM172.96-12.45L184.19-12.45 178.53-31.27 172.96-12.45ZM187.59-10.03L188.86-6.47Q189.3-6.47 189.3-7.45L189.3-7.45Q189.3-9.16 188.78-10.77L188.78-10.77 187.86-13.62Q186.88-16.85 186.88-17.68L186.88-17.68Q186.86-19.04 188.08-19.48L188.08-19.48Q186.39-19.82 186.03-20.53L186.03-20.53Q185.85-20.83 185.74-21 185.63-21.17 185.52-21.4 185.41-21.63 185.27-22 185.12-22.36 184.88-23.05L184.88-23.05 183.36-27.61Q182.83-29.32 181.78-30.2L181.78-30.2Q181.46-30.47 181.19-30.52L181.19-30.52Q182.83-24.61 183.34-22.95L183.34-22.95Q186.88-12.06 187.59-10.03L187.59-10.03ZM196.11-4.13L196.06-4.27 196.11-4.13ZM236.48-4.22Q237.46-5.05 238.03-6.37 238.61-7.69 238.61-9.14 238.61-10.6 238.05-11.4L238.05-11.4Q238.44-12.08 239.68-12.08 240.93-12.08 241.6-11.28 242.27-10.47 242.27-8.8 242.27-7.13 241.38-5.33 240.49-3.54 238.88-2.2L238.88-2.2Q235.31 0.73 229.97 0.73L229.97 0.73Q223.59 0.73 219.49-3.27L219.49-3.27Q215.32-7.37 214.46-14.97L214.46-14.97Q214.05-18.43 211.97-19.46L211.97-19.46Q213.12-20 213.56-20.58L213.56-20.58Q214.27-21.58 214.47-23.3 214.68-25.02 215.27-26.88 215.85-28.74 216.82-30.41 217.78-32.08 219.13-33.48 220.47-34.89 222.2-35.91L222.2-35.91Q225.86-38.09 230.75-38.09L230.75-38.09Q235.51-38.09 238.63-35.69L238.63-35.69Q241.44-33.52 242.27-29.79L242.27-29.79Q242.66-27.93 243.27-27.49L243.27-27.49Q243.52-27.29 243.88-27.12L243.88-27.12Q243.15-25.9 241.66-25.78L241.66-25.78Q241-25.68 240.24-26.05L240.24-26.05Q238.9-23.75 236.46-23.61L236.46-23.61Q235.95-23.56 235.68-23.8L235.68-23.8Q236.34-24.68 236.29-25.85L236.29-25.85Q236.29-26.07 236.22-26.29L236.22-26.29Q235.09-26.07 234.31-26.49L234.31-26.49Q233.04-27.22 232.99-28.08L232.99-28.08Q232.99-28.27 233.07-28.47L233.07-28.47Q234.58-28.03 235.95-29.15L235.95-29.15Q236.87-29.91 236.83-30.86 236.78-31.81 236.39-32.52 236-33.23 235.26-33.79L235.26-33.79Q233.6-35.11 231.11-35.11L231.11-35.11Q226.86-35.11 225.6-31.3L225.6-31.3Q225.18-30.03 225.18-28.32L225.18-28.32 225.18-23.39Q225.18-20.63 227.87-19.46L227.87-19.46Q225.18-18.16 225.18-15.23L225.18-15.23 225.18-9.2Q225.18-4.57 228.87-3.08L228.87-3.08Q230.06-2.61 231.5-2.61 232.94-2.61 234.23-3 235.51-3.39 236.48-4.22ZM220-6.47L220-6.47Q220.37-6.62 220.37-6.98L220.37-6.98Q220.37-7.52 219.86-8.67L219.86-8.67Q218.56-11.62 218.56-19.46L218.56-19.46Q218.56-25.17 219.93-29.17L219.93-29.17Q220.1-29.79 220.1-30.1 220.1-30.42 219.78-30.52L219.78-30.52Q218.64-29.08 218.15-27.66L218.15-27.66Q217.25-25.07 216.71-20.65L216.71-20.65Q216.64-20.02 215.27-19.46L215.27-19.46Q216.64-18.85 216.71-18.21L216.71-18.21Q217.59-10.64 218.95-8.11L218.95-8.11Q219.42-7.2 220-6.47ZM252.01-3.61Q249.98-5.71 248.73-8.67 247.47-11.62 247.17-14.26 246.88-16.89 246.28-17.91 245.69-18.92 244.59-19.46L244.59-19.46Q246.71-20.46 247.09-23.57 247.47-26.68 248.81-29.39 250.15-32.1 252.23-34.03L252.23-34.03Q256.6-38.09 262.75-38.09L262.75-38.09Q269.07-38.09 273.22-34.33L273.22-34.33Q277.55-30.42 278.3-23.39L278.3-23.39Q278.62-20.46 280.79-19.46L280.79-19.46Q278.67-18.41 278.28-15.01 277.89-11.62 276.74-8.67 275.59-5.71 273.66-3.61L273.66-3.61Q269.64 0.73 262.78 0.73L262.78 0.73Q256.21 0.73 252.01-3.61L252.01-3.61ZM259.99-19.46L259.99-19.46Q257.31-18.16 257.31-15.23L257.31-15.23 257.31-7.98Q257.31-4 260.6-2.88L260.6-2.88Q261.58-2.54 262.73-2.54 263.87-2.54 264.84-2.88 265.8-3.22 266.51-3.91L266.51-3.91Q267.98-5.32 267.98-7.98L267.98-7.98 267.98-15.23Q267.98-18.16 265.34-19.46L265.34-19.46Q267.98-20.68 267.98-23.39L267.98-23.39 267.98-29.22Q267.98-31.93 266.39-33.45L266.39-33.45Q264.9-34.84 262.7-34.84L262.7-34.84Q258.97-34.84 257.72-31.71L257.72-31.71Q257.31-30.66 257.31-29.22L257.31-29.22 257.31-23.39Q257.31-20.63 259.99-19.46ZM270.22-30.52L270.22-30.52Q270.91-28.47 270.91-23.46L270.91-23.46Q270.91-20.63 270.66-20.36 270.42-20.09 270.17-19.92L270.17-19.92Q269.73-19.63 269.22-19.46L269.22-19.46Q270.69-18.8 270.76-18.19L270.76-18.19Q271-15.8 271-14.05 271-12.3 270.95-11.24 270.91-10.18 270.81-9.28L270.81-9.28Q270.61-7.35 270.32-6.47L270.32-6.47Q272.22-7.06 272.44-12.11L272.44-12.11Q272.57-14.94 272.57-18.42 272.57-21.9 272.49-23.65 272.42-25.39 272.27-26.51L272.27-26.51Q271.98-29.1 271.05-30.1L271.05-30.1Q270.78-30.4 270.22-30.52ZM252.62-6.47L252.62-6.47Q252.99-6.62 252.99-6.98L252.99-6.98Q252.99-7.52 252.47-8.67L252.47-8.67Q251.18-11.62 251.18-19.46L251.18-19.46Q251.18-25.17 252.55-29.17L252.55-29.17Q252.72-29.79 252.72-30.1 252.72-30.42 252.4-30.52L252.4-30.52Q251.25-29.08 250.76-27.66L250.76-27.66Q249.86-25.07 249.32-20.65L249.32-20.65Q249.25-20.02 247.88-19.46L247.88-19.46Q249.25-18.85 249.32-18.21L249.32-18.21Q250.2-10.64 251.57-8.11L251.57-8.11Q252.03-7.2 252.62-6.47ZM290.46-3.61Q288.43-5.71 287.17-8.67 285.92-11.62 285.62-14.26 285.33-16.89 284.73-17.91 284.14-18.92 283.04-19.46L283.04-19.46Q285.16-20.46 285.54-23.57 285.92-26.68 287.26-29.39 288.6-32.1 290.68-34.03L290.68-34.03Q295.05-38.09 301.2-38.09L301.2-38.09Q307.52-38.09 311.67-34.33L311.67-34.33Q316-30.42 316.75-23.39L316.75-23.39Q317.07-20.46 319.24-19.46L319.24-19.46Q317.12-18.41 316.73-15.01 316.34-11.62 315.19-8.67 314.04-5.71 312.11-3.61L312.11-3.61Q308.09 0.73 301.23 0.73L301.23 0.73Q294.66 0.73 290.46-3.61L290.46-3.61ZM298.44-19.46L298.44-19.46Q295.76-18.16 295.76-15.23L295.76-15.23 295.76-7.98Q295.76-4 299.05-2.88L299.05-2.88Q300.03-2.54 301.18-2.54 302.32-2.54 303.29-2.88 304.25-3.22 304.96-3.91L304.96-3.91Q306.43-5.32 306.43-7.98L306.43-7.98 306.43-15.23Q306.43-18.16 303.79-19.46L303.79-19.46Q306.43-20.68 306.43-23.39L306.43-23.39 306.43-29.22Q306.43-31.93 304.84-33.45L304.84-33.45Q303.35-34.84 301.15-34.84L301.15-34.84Q297.42-34.84 296.17-31.71L296.17-31.71Q295.76-30.66 295.76-29.22L295.76-29.22 295.76-23.39Q295.76-20.63 298.44-19.46ZM308.67-30.52L308.67-30.52Q309.36-28.47 309.36-23.46L309.36-23.46Q309.36-20.63 309.11-20.36 308.87-20.09 308.62-19.92L308.62-19.92Q308.18-19.63 307.67-19.46L307.67-19.46Q309.14-18.8 309.21-18.19L309.21-18.19Q309.45-15.8 309.45-14.05 309.45-12.3 309.4-11.24 309.36-10.18 309.26-9.28L309.26-9.28Q309.06-7.35 308.77-6.47L308.77-6.47Q310.67-7.06 310.89-12.11L310.89-12.11Q311.02-14.94 311.02-18.42 311.02-21.9 310.94-23.65 310.87-25.39 310.72-26.51L310.72-26.51Q310.43-29.1 309.5-30.1L309.5-30.1Q309.23-30.4 308.67-30.52ZM291.07-6.47L291.07-6.47Q291.44-6.62 291.44-6.98L291.44-6.98Q291.44-7.52 290.92-8.67L290.92-8.67Q289.63-11.62 289.63-19.46L289.63-19.46Q289.63-25.17 291-29.17L291-29.17Q291.17-29.79 291.17-30.1 291.17-30.42 290.85-30.52L290.85-30.52Q289.7-29.08 289.21-27.66L289.21-27.66Q288.31-25.07 287.77-20.65L287.77-20.65Q287.7-20.02 286.33-19.46L286.33-19.46Q287.7-18.85 287.77-18.21L287.77-18.21Q288.65-10.64 290.02-8.11L290.02-8.11Q290.48-7.2 291.07-6.47ZM331.35 0.49L331.35 0.49Q329.74 0.49 328.49-0.29L328.49-0.29Q327.25 0.49 326.19 0.49 325.12 0.49 324.44 0.31 323.76 0.12 323.24-0.2L323.24-0.2Q322.19-0.83 322.19-1.78L322.19-1.78Q322.19-2.27 322.46-2.64L322.46-2.64Q323-2.22 323.83-2.22L323.83-2.22Q326-2.22 326.83-4.08L326.83-4.08 326.83-16.02Q326.83-17.14 326.37-17.68L326.37-17.68Q325.64-18.58 323.85-19.46L323.85-19.46Q325.51-20.21 326-20.8L326-20.8Q326.83-21.75 326.83-22.95L326.83-22.95 326.83-33.25Q326-35.13 323.83-35.13L323.83-35.13Q323-35.13 322.46-34.72L322.46-34.72Q322.19-35.08 322.19-35.56 322.19-36.04 322.48-36.45 322.76-36.87 323.24-37.16L323.24-37.16Q324.37-37.84 325.82-37.84 327.27-37.84 328.49-37.04L328.49-37.04Q329.76-37.84 331.33-37.84 332.89-37.84 334.16-37.04L334.16-37.04Q335.52-37.84 336.65-37.84 337.77-37.84 338.45-37.66 339.14-37.48 339.65-37.16L339.65-37.16Q340.7-36.52 340.7-35.57L340.7-35.57Q340.7-35.08 340.43-34.72L340.43-34.72Q339.89-35.13 338.99-35.13 338.09-35.13 337.17-34.66 336.26-34.18 335.82-33.23L335.82-33.23 335.82-22.95Q335.82-21.75 336.33-21.17L336.33-21.17Q337.14-20.21 338.8-19.46L338.8-19.46Q337.01-18.58 336.53-18.02L336.53-18.02Q335.82-17.14 335.82-16.02L335.82-16.02 335.82-5.35Q337.43-2.78 339.85-2.78L339.85-2.78Q345.83-2.78 347.54-7.86L347.54-7.86Q348.29-10.11 348.29-11.98 348.29-13.84 347.78-14.48L347.78-14.48Q348.34-14.94 348.94-14.94 349.54-14.94 350.05-14.7 350.56-14.45 350.98-13.96L350.98-13.96Q351.83-12.96 351.83-11.6 351.83-10.23 351.61-9.5L351.61-9.5Q352.74-8.57 352.74-6.88 352.74-5.2 351.78-4.15L351.78-4.15Q352.59-3.13 352.59-2.29 352.59-1.46 352.36-0.87 352.13-0.27 351.71 0.2L351.71 0.2Q350.78 1.15 349.49 1.15L349.49 1.15Q348.85 1.15 348.32 0.88L348.32 0.88Q348.42 0.34 348.42-0.2L348.42-0.2Q348.42-1.32 347.39-1.32L347.39-1.32Q346.63-1.32 345.29-0.71L345.29-0.71Q342.7 0.49 339.39 0.49 336.09 0.49 334.23-0.37L334.23-0.37Q332.96 0.49 331.35 0.49ZM329.18-9.64L329.18-6.47Q330.4-6.93 330.52-9.67L330.52-9.67Q330.67-12.4 330.67-17.24 330.67-22.07 330.65-23.67 330.64-25.27 330.62-26.25L330.62-26.25Q330.54-29.13 330.07-29.72 329.59-30.32 329.18-30.52L329.18-30.52Q329.18-22.02 328.88-20.85L328.88-20.85Q328.54-19.87 327.22-19.46L327.22-19.46Q328.69-18.95 328.88-18.21L328.88-18.21Q329.18-17.04 329.18-9.64L329.18-9.64Z" opacity="1" transform="matrix(1,0,0,1,0,0)" fill="#ffffff" class="undefined-text-0" data-fill-palette-color="primary" id="text-0"></path></svg></g></svg></g></svg></g></svg></g><g></g></svg></g><defs></defs></svg><rect width="395.52" height="110.22037367502433" fill="none" stroke="none" visibility="hidden"></rect></g></svg></g></svg>